<svg width="810" height="812" viewBox="0 0 810 812" fill="none" xmlns="http://www.w3.org/2000/svg">
<g clip-path="url(#clip0_162_20)">
<path d="M1189.08 432.9C1191.96 410.299 1197.19 388.028 1203.12 366.056C1214.85 322.593 1229.81 279.878 1237.76 235.466C1245.63 191.461 1248.99 141.42 1225.47 101.481C1212.26 79.0614 1193.68 60.1231 1175.07 42.1951C1159.68 27.3768 1126.38 3.85622 1110.97 -6.78739C1108.37 -8.58263 1104.99 -6.03278 1105.99 -3.0326C1114.18 21.2974 1136.09 87.3681 1144.89 123.2C1156.26 169.511 1156.91 217.069 1154.61 264.47C1152.45 309.223 1148.62 353.86 1147.64 398.673C1146.7 441.888 1148.04 485.171 1153.92 528.028C1157.41 553.405 1162.77 578.465 1170.21 602.887C1158.74 595.389 1146.99 588.269 1135.23 581.247C1111.39 567.025 1039.65 478.437 1020.21 452.357C989.355 410.981 997.264 131.318 942.896 53.0761C906.35 0.484842 779.614 -39.7589 741.63 -50.8589C738.477 -51.7778 736.102 -47.9987 738.282 -45.5401C765.309 -15.1002 857.887 91.0438 890.265 152.514C929.252 226.532 937.064 307.647 961.187 387.288C968.002 409.794 975.091 432.223 982.952 454.389C983.602 456.215 984.264 458.042 984.92 459.869C977.455 451.497 970.414 442.752 963.926 433.588C947.355 410.16 891.188 305.352 889.779 303.058C886.559 297.8 883.382 292.518 880.235 287.217C873.802 276.397 867.473 265.516 861.088 254.672C848.349 233.044 835.386 211.513 820.965 190.956C806.428 170.229 790.385 150.646 772.452 132.778C754.915 115.295 735.883 99.4114 716.189 84.441C696.561 69.5192 676.181 55.6138 655.582 42.0856C634.484 28.2288 613.375 14.2321 591.652 1.3733C569.018 -12.021 545.229 -23.0905 519.813 -30.0281C494.846 -36.8439 468.992 -40.2153 443.223 -42.0532C397.815 -45.2785 300.681 -41.6515 269.676 -40.3614C266.529 -40.2275 265.357 -36.1867 267.944 -34.3915C291.405 -18.1552 360.577 29.5798 395.476 52.0294C417.515 66.2026 440.234 79.2196 464.588 88.9991C490.01 99.2045 516.69 105.765 543.407 111.503C596.032 122.798 650.26 131.275 697.758 158.155C742.389 183.41 778.721 220.587 811.592 259.461C828.394 279.331 844.559 299.76 860.511 320.311C867.691 329.561 874.799 339.06 881.384 348.9C875.303 343.04 867.709 339.224 860.104 335.701C857.856 334.66 855.609 333.626 853.367 332.591C826.578 314.462 793.878 303.344 764.312 292.311C735.682 281.619 708.043 268.084 678.453 260.106C649.629 252.341 619.68 248.769 589.963 246.548C536.943 242.586 483.389 244.759 431.031 254.246C379.609 263.563 329.274 280.444 283.641 306.137C260.26 319.3 234.977 331.338 218.047 352.138C199.343 375.129 151.189 400.621 134.435 412.107C132.139 413.679 132.722 417.195 135.395 417.959C153.224 423.055 204.397 435.024 252.175 420.853C269.9 415.594 285.33 405.252 301.088 395.76C316.882 386.245 332.816 378.231 350.536 372.963C369.13 367.443 388.29 363.774 407.279 359.915C426.84 355.941 446.522 352.406 466.471 351.195C486.536 349.978 506.454 351.834 526.446 353.313C546.268 354.779 565.968 354.883 585.753 352.82C608.211 350.471 630.384 346.113 652.313 340.782C663.211 338.135 674.061 335.257 684.886 332.311C692.285 330.297 746.556 322.745 765.776 322.501C775.326 322.38 784.735 322.879 793.999 325.362C802.862 327.741 811.288 331.374 819.61 335.19C828.054 339.066 836.473 342.973 844.899 346.868C856.083 354.676 866.233 363.871 874.076 375.046C876.749 378.855 916.574 423.74 942.082 450.298C941.055 449.879 940.047 449.408 939.014 449C909.971 437.503 814.179 411.663 799.807 407.204C785.634 400.562 770.581 396.912 755.14 395.275C741.897 392.884 728.46 391.923 715.041 393.69C713.473 393.896 711.991 394.396 710.709 395.154C695.498 396.366 680.372 398.557 665.793 400.833C610.416 409.483 554.663 418.259 501.145 435.398C446.765 452.812 396.236 480.43 350.202 514.105C326.923 531.132 306.178 550.606 286.083 571.236C266.966 590.856 247.704 610.147 226.4 627.411C194.526 653.251 120.208 696.385 91.6816 712.652C88.6989 714.35 89.9442 718.902 93.3764 718.841C114.753 718.476 157.136 718.141 181.641 720.563C217.433 724.099 253.329 729.381 289.224 723.989C356.294 713.918 411.331 667.193 456.229 619.251C503.223 569.069 545.752 511.817 606.152 476.763C664.591 442.848 733.757 433.249 800.287 439.398C834.687 442.577 868.718 450.141 901.46 461.13C935.697 472.621 967.972 489.321 995.752 512.596C1002.4 518.17 1008.77 524.067 1014.89 530.219C1015.06 530.39 1015.23 530.493 1015.4 530.645C1008.61 530.219 1001.8 529.878 994.98 529.708C966.386 527.03 937.532 527.195 908.908 529.878C886.936 531.935 865.073 535.307 843.478 539.841C822.508 544.246 801.696 549.748 781.856 557.951C743.239 573.92 710.217 599.704 678.611 626.608C662.944 639.942 646.871 653.105 632.662 668.026C619.182 682.194 607.871 698.345 598.759 715.646C584.787 742.185 570.925 790.827 563.708 818.266C562.761 821.893 567.572 824.066 569.668 820.962C591.415 788.697 643.815 721.245 714.032 699.616C750.067 688.516 789.31 636.302 817.587 611.297C831.504 598.986 845.853 587.15 860.796 576.104C875.941 564.913 891.856 552.815 910.621 548.792C921.586 546.443 932.97 546.638 944.129 546.431C956.448 546.212 968.768 546.017 981.087 546.09C985.771 546.115 990.467 546.194 995.156 546.303C1066.84 552.145 1099.28 590.856 1126.36 605.522C1136.22 610.865 1145.74 616.774 1154.56 623.711C1162.19 629.718 1173.51 634.812 1181.96 642.23C1178.01 641.822 1174.04 641.566 1170.07 641.542C1169.44 640.617 1168.62 639.832 1167.56 639.339C1133.22 623.401 1095.61 615.125 1057.73 615.745C1039.02 616.05 1020.02 618.326 1001.94 623.219C983.408 628.233 966.593 636.984 950.75 647.707C934.233 658.88 918.233 670.868 902.159 682.656C887.039 693.75 871.737 704.747 857.698 717.21C844.115 729.277 832.057 743.006 822.72 758.646C813.457 774.164 806.689 791.247 801.981 808.676C793.55 839.9 792.414 895.34 792.438 923.674C792.438 927.325 797.462 928.305 798.817 924.916C817.32 878.574 877.131 748.66 976.707 717.837C1023.17 703.45 1061.63 668.897 1109.94 662.835C1138.01 659.312 1166.6 659.957 1194.45 664.947C1194.57 665.191 1228 681.445 1235.97 691.255C1255.75 715.591 1274.74 740.621 1294 765.383V718.756C1270.07 693.087 1193.92 609.69 1186.1 505.208C1184.3 481.138 1186.03 456.86 1189.08 432.9Z" fill="white" fill-opacity="0.04"/>
<path d="M435.999 510.226C356.133 469.873 141.706 390.592 17.202 420.649C7.38145 423.017 -4.31499 429.495 -15 435.139L-15 812L658 812C649.503 761.376 592.237 722.205 550.334 662.673C507.421 601.696 484.081 534.519 435.999 510.226Z" fill="#C26D32"/>
<path d="M449.83 724.084C450.612 718.328 451 712.468 451 706.498C451 678.124 442.196 647.383 424.729 614.865C405.509 579.083 375.768 541.803 338.721 507.057C302.884 473.447 260.953 442.818 217.46 418.479C172.747 393.457 127.356 375.694 86.2022 367.108C49.1465 359.376 15.9482 358.982 -12.4641 365.942C-13.3168 366.148 -14.1607 366.368 -15 366.587L-15 370.669C-13.5847 370.278 -12.1605 369.897 -10.7185 369.544C16.6224 362.851 48.7224 363.261 84.6932 370.764C125.2 379.217 169.966 396.752 214.152 421.475C257.288 445.617 298.889 476.007 334.453 509.361C371.197 543.823 400.684 580.777 419.725 616.225C440.571 655.031 448.906 691.197 444.495 723.718C441.017 749.404 420.523 782.968 399.145 812L405.203 812C413.635 800.473 420.961 789.549 427.084 779.347C440.16 757.56 447.812 738.967 449.83 724.084Z" fill="#DD993F"/>
</g>
<defs>
<clipPath id="clip0_162_20">
<rect width="810" height="812" fill="white"/>
</clipPath>
</defs>
</svg>