<svg width="54" height="36" viewBox="0 0 54 36" fill="none" xmlns="http://www.w3.org/2000/svg">
<path d="M22.9093 34.3276C22.9191 34.3234 25.9687 32.924 26.5716 29.504C26.8919 27.6895 27.2316 25.7957 27.9725 24.2194C28.7328 22.5999 29.9025 21.3369 31.8673 20.8676C32.2461 20.7785 32.6109 20.6977 32.9577 20.6225C35.8276 19.9945 37.3747 19.6561 40.7306 14.1543C41.9825 12.099 42.9197 10.9209 43.7009 10.1856C44.5002 9.4309 45.131 9.13986 45.7632 8.85301L46.0347 9.45319C45.4513 9.71637 44.872 9.98373 44.1507 10.6647C43.4099 11.3637 42.5103 12.4972 41.2918 14.4955C37.7897 20.2382 36.1465 20.5988 33.0969 21.2659C32.7599 21.3397 32.4062 21.4162 32.0191 21.5095C30.2841 21.9217 29.2466 23.0497 28.5671 24.4979C27.8666 25.9893 27.5324 27.8413 27.2205 29.6168C26.5577 33.3765 23.1976 34.918 23.1878 34.9222L22.9093 34.3276ZM47.8436 10.9752L47.7615 11.1507C47.4147 11.8817 46.8299 13.1197 46.2506 13.9566C45.9944 14.3284 45.6796 14.7211 45.3301 15.1569C43.7761 17.0981 41.5216 19.9151 41.1414 25.0382L40.4856 24.9922C40.8797 19.6645 43.2121 16.7513 44.8191 14.7447C45.1602 14.3186 45.468 13.9343 45.7103 13.5834C46.2575 12.7924 46.8285 11.5837 47.1669 10.8708L47.249 10.6953L47.8436 10.9752Z" fill="#3B3A64"/>
<path d="M47.7727 7.87124C48.1347 8.09822 48.274 8.61764 48.2559 9.21642C48.2364 9.81938 48.0637 10.5295 47.8075 11.0531C47.7462 11.1785 47.6794 11.2996 47.6056 11.4138L47.6069 11.4152C47.366 11.7926 47.0736 12.085 46.7617 12.2507C46.408 12.4387 46.0334 12.4707 45.6797 12.298C45.6393 12.2785 45.5989 12.2563 45.5614 12.2312V12.2298C45.1687 11.9805 44.9333 11.5447 44.8832 11.0322C44.8373 10.5685 44.9445 10.0366 45.2257 9.52973C45.2661 9.46011 45.3023 9.39604 45.3371 9.34034H45.3386C45.6212 8.89056 46.0139 8.44218 46.4066 8.14418C46.8689 7.79327 47.3535 7.63591 47.7379 7.85036L47.7448 7.85454L47.7643 7.86568L47.7727 7.87124ZM47.5986 9.19832C47.6111 8.82652 47.5624 8.52574 47.4301 8.43244L47.4106 8.42129V8.4199C47.2881 8.36141 47.0583 8.47282 46.8035 8.66638C46.472 8.91703 46.1379 9.29997 45.8956 9.68708V9.68847C45.858 9.74835 45.8259 9.80266 45.8009 9.84861C45.585 10.2343 45.5029 10.6298 45.5363 10.9682C45.5669 11.2815 45.6978 11.5391 45.9137 11.677V11.6756C45.9318 11.6881 45.9499 11.6979 45.968 11.7062C46.117 11.78 46.2855 11.7605 46.4526 11.6714C46.6628 11.56 46.8703 11.347 47.0499 11.0615H47.0513C47.1084 10.9724 47.1641 10.8735 47.2157 10.7663V10.7649C47.4343 10.3165 47.5833 9.71076 47.5986 9.19832Z" fill="#3B3A64"/>
<path d="M42.0898 19.262C42.0954 19.262 44.2649 19.1381 45.1547 18.2274C45.514 17.8584 45.8663 17.3515 46.2464 16.8042C46.8759 15.8963 47.5805 14.8812 48.5761 14.1042C49.7403 13.1962 49.5007 10.6493 49.3517 9.06884C49.3211 8.74299 49.2933 8.45613 49.2821 8.22915C49.2487 7.52176 49.2167 5.87582 49.5439 4.37051C49.8907 2.77469 50.6412 1.33065 52.2036 1.18583L52.5503 1.15381L52.5615 1.50194C52.5629 1.53536 52.9249 13.3132 52.9472 13.7352C52.9486 13.7783 52.9556 13.8271 52.9625 13.8814C53.0336 14.4258 53.17 15.4633 51.5714 17.1649C50.9058 17.8737 50.2221 18.6396 49.6177 19.4444C49.0204 20.2424 48.4967 21.0848 48.143 21.9593C47.93 22.4829 47.827 22.8672 47.7448 23.175C47.6209 23.6359 47.5373 23.9492 47.2337 24.3266C46.5319 25.1955 45.4555 25.7163 44.2301 26.3095C43.435 26.6953 42.5744 27.1116 41.7305 27.67L41.6748 27.7076C38.479 29.8214 35.1133 32.0467 33.3337 34.8623L32.7767 34.5114C34.6343 31.5746 38.0585 29.3104 41.3114 27.159L41.3685 27.1214C42.2485 26.5393 43.13 26.1132 43.9446 25.7177C45.099 25.1593 46.1128 24.6678 46.7213 23.9144C46.9372 23.647 47.0067 23.3867 47.1084 23.0051C47.1961 22.6793 47.3047 22.274 47.5331 21.7115C47.9077 20.7854 48.4619 19.8928 49.0927 19.0518C49.7193 18.2162 50.417 17.4337 51.0924 16.7151C52.4779 15.2391 52.3693 14.4049 52.3122 13.9663V13.9649C52.3025 13.8911 52.2928 13.8257 52.2914 13.77C52.2705 13.3828 51.9794 3.94022 51.9167 1.90715C50.9573 2.19958 50.4504 3.30106 50.1872 4.50976C49.8753 5.94266 49.906 7.52037 49.9394 8.19713C49.9505 8.41854 49.9756 8.69425 50.0048 9.00617C50.1677 10.7245 50.4281 13.4928 48.9813 14.6208C48.0636 15.3365 47.3897 16.3085 46.7867 17.1774C46.3899 17.7484 46.0222 18.2789 45.6254 18.6855C44.5559 19.78 42.1316 19.9179 42.126 19.9179L42.0898 19.262Z" fill="#3B3A64"/>
<path d="M49.5216 10.6089C49.516 10.6006 47.3297 7.63869 46.8062 6.44949C46.6279 6.04566 46.3063 5.67943 45.9554 5.37586C45.3984 4.89406 44.7884 4.57655 44.542 4.49439H44.5406C44.1423 4.36211 42.1079 2.8749 41.342 2.30815C41.1345 2.75097 40.9131 3.67142 41.9115 4.68935C42.3724 5.15723 42.8055 5.53182 43.2052 5.87577C44.2175 6.74887 45.0238 7.44513 45.578 9.00753L45.6351 9.16767L45.6365 9.16627C45.6546 9.2164 45.674 9.26932 45.6949 9.32223L45.0822 9.56175C45.0613 9.50744 45.0391 9.45175 45.0182 9.39326V9.39186L44.9583 9.22893L44.9569 9.22616C44.4612 7.82808 43.7134 7.18334 42.7748 6.3729C42.3654 6.0192 41.9213 5.63626 41.4436 5.15028C39.6389 3.31077 40.9855 1.6314 40.9882 1.62722L41.1874 1.37239L41.445 1.56735C41.4534 1.57292 44.3484 3.73827 44.748 3.87195C45.0446 3.97082 45.759 4.33704 46.3856 4.88012C46.8006 5.23939 47.1863 5.68083 47.4077 6.18352C47.9035 7.30867 50.0466 10.212 50.0521 10.2204L49.5216 10.6089ZM47.0707 12.2911C47.2768 12.7576 47.4676 13.2435 47.6236 13.7616C47.7795 14.2824 47.9007 14.838 47.9661 15.4437L47.3131 15.5133C47.2518 14.9536 47.139 14.4369 46.9928 13.9495C46.8466 13.4622 46.6655 13.0012 46.4678 12.557L47.0707 12.2911Z" fill="#3B3A64"/>
<path d="M44.9236 8.84464C44.9124 8.84046 41.1304 7.54821 38.4038 5.65718C38.1741 6.06658 37.9986 7.08311 40.2642 8.6469C40.6819 8.93376 41.0816 9.19416 41.4632 9.44063C42.2068 9.92244 42.8794 10.3583 43.4656 10.8652L43.0353 11.3609C42.4825 10.8833 41.828 10.46 41.1053 9.99068C40.7182 9.74142 40.313 9.47684 39.891 9.18719C36.1842 6.62915 38.1142 4.97206 38.1197 4.96788L38.3175 4.78547L38.5333 4.94282C41.1944 6.87424 45.1241 8.21801 45.1352 8.2208L44.9236 8.84464ZM45.5697 14.6779C45.6602 15.1834 45.7201 15.7459 45.7451 16.3767C45.7702 17.0048 45.7619 17.6996 45.7187 18.4739L45.0614 18.4377C45.1046 17.6815 45.1129 17.0062 45.0892 16.4018C45.0642 15.8002 45.0085 15.2669 44.9236 14.7935L45.5697 14.6779Z" fill="#3B3A64"/>
<path d="M42.2611 12.5599C42.2513 12.5571 39.0374 11.4431 37.2118 9.99486C37.1631 10.2344 37.1603 10.5602 37.2981 10.946C37.514 11.5517 38.0654 12.2925 39.2769 13.0876C39.7726 13.4121 40.3783 13.7449 41.1136 14.0805L40.8407 14.6793C40.0762 14.3311 39.4412 13.9816 38.9176 13.6377C37.5627 12.7493 36.9347 11.8859 36.6784 11.1674C36.4069 10.4057 36.5462 9.79156 36.6993 9.45597H36.698C36.73 9.38495 36.7662 9.32089 36.801 9.26798L37.0141 8.94491L37.2981 9.20809C38.912 10.7023 42.4727 11.936 42.4824 11.9402L42.2611 12.5599Z" fill="#3B3A64"/>
<path d="M52.0365 1.69133C52.0365 1.69411 51.7914 2.78028 52.4515 3.14512L52.1325 3.72022C51.0352 3.11169 51.3889 1.56739 51.3903 1.56321L52.0365 1.69133Z" fill="#3B3A64"/>
<path d="M41.1791 2.0854C41.1805 2.08679 42.0369 2.73988 42.6162 2.57974L42.7902 3.21333C41.906 3.45841 40.7725 2.59924 40.7697 2.59785L41.1791 2.0854Z" fill="#3B3A64"/>
<path d="M38.227 5.45108L38.2562 5.47337L38.2576 5.47476C38.4052 5.59173 39.0847 6.12785 39.437 5.81871L39.8687 6.31305C39.1084 6.98146 38.0779 6.16962 37.8524 5.99137L37.8217 5.96771L38.227 5.45108Z" fill="#3B3A64"/>
<path d="M37.0879 9.76649C37.2049 9.88624 37.4931 10.1299 37.8023 10.2163C37.9555 10.258 38.1128 10.258 38.2437 10.1661L38.6224 10.7036C38.3022 10.9292 37.9527 10.9404 37.6282 10.8499C37.177 10.7245 36.776 10.3889 36.6172 10.2246L37.0879 9.76649Z" fill="#3B3A64"/>
<path d="M26.3181 30.6987C26.2569 30.5232 26.2026 30.345 26.1567 30.1654C26.1093 29.9816 26.0689 29.7991 26.0369 29.6167C25.7236 27.8413 25.3908 25.9892 24.6903 24.4978C24.0108 23.0496 22.972 21.9217 21.2369 21.5095C20.8512 21.4162 20.4961 21.3396 20.1605 21.2658C17.1109 20.5988 15.4677 20.2381 11.9655 14.4954C10.7471 12.4972 9.84756 11.3637 9.10535 10.6646C8.38403 9.9837 7.80475 9.71634 7.22268 9.45315L7.49281 8.85297C8.1264 9.13983 8.7558 9.43087 9.5565 10.1856C10.3363 10.9209 11.2735 12.0989 12.5267 14.1543C15.8827 19.6561 17.4284 19.9945 20.2997 20.6225C20.6465 20.6977 21.0113 20.7785 21.3887 20.8676C23.3535 21.3368 24.5232 22.5999 25.2849 24.2193C26.0243 25.7957 26.3655 27.6895 26.6844 29.5039C26.7164 29.6794 26.7512 29.8451 26.7916 29.9997C26.8362 30.1709 26.8849 30.3325 26.9378 30.4856L26.3181 30.6987ZM6.00701 10.6953L6.09056 10.8707C6.42755 11.5837 6.99984 12.791 7.54709 13.5833C7.79496 13.9426 8.09992 14.3228 8.4383 14.7447C10.0453 16.7513 12.3764 19.6644 12.7718 24.9922L12.1145 25.0381C11.7358 19.9151 9.47994 17.098 7.9259 15.1569V15.1555C7.57499 14.7155 7.25608 14.3186 7.00543 13.9565C6.42754 13.1196 5.84131 11.8817 5.49597 11.1506L5.41242 10.9752L6.00701 10.6953Z" fill="#3B3A64"/>
<path d="M5.8274 8.43244C5.69372 8.52574 5.64639 8.82652 5.65753 9.19832C5.67424 9.71076 5.82184 10.3165 6.04047 10.7649C6.09478 10.8763 6.1491 10.9752 6.2048 11.0615H6.20621C6.38724 11.347 6.5947 11.56 6.80358 11.6714C6.97068 11.7605 7.13918 11.7786 7.28818 11.7062H7.29096C7.3021 11.7007 7.32019 11.6909 7.34247 11.6756L7.34388 11.677C7.55833 11.5391 7.68922 11.2815 7.71986 10.9682C7.75328 10.6298 7.67109 10.2343 7.45664 9.84861C7.43018 9.80266 7.39818 9.74835 7.36058 9.68847L7.362 9.68708C7.11831 9.29997 6.78406 8.91703 6.45403 8.66638C6.19781 8.47282 5.96806 8.36141 5.84552 8.4199V8.42129L5.8274 8.43244ZM5.00169 9.21642C4.98359 8.61764 5.12283 8.09822 5.48488 7.87124L5.49184 7.86568L5.51131 7.85454L5.51969 7.85036C5.90402 7.63591 6.38862 7.79327 6.84954 8.14418C7.24223 8.44218 7.6363 8.89056 7.91758 9.34034H7.919C7.95381 9.39604 7.99141 9.46011 8.0304 9.52973C8.31308 10.0366 8.42029 10.5685 8.37434 11.0322C8.32421 11.5447 8.08889 11.9805 7.6962 12.2298V12.2312C7.66278 12.2521 7.62377 12.2744 7.57642 12.2967L7.57783 12.298C7.22274 12.4707 6.84815 12.4387 6.49445 12.2507C6.18253 12.0836 5.89011 11.7926 5.64921 11.4152L5.65057 11.4138C5.57537 11.2954 5.50714 11.1757 5.44865 11.0531C5.19382 10.5295 5.01979 9.81938 5.00169 9.21642Z" fill="#3B3A64"/>
<path d="M11.1315 19.9179C11.1245 19.9179 8.70014 19.78 7.63069 18.6855C7.23383 18.2789 6.86764 17.7498 6.47078 17.1774C5.86782 16.3085 5.19243 15.3365 4.27616 14.6208C2.82934 13.4928 3.08971 10.7273 3.25125 9.01036C3.28049 8.69705 3.3056 8.42132 3.31674 8.19713C3.35016 7.52037 3.38217 5.94266 3.06886 4.50976C2.80568 3.30106 2.29881 2.19958 1.33937 1.90715C1.27671 3.94022 0.985662 13.3828 0.966167 13.77C0.963382 13.8257 0.953613 13.8911 0.943865 13.9663V13.9677C0.888165 14.405 0.779571 15.2391 2.16373 16.7151C2.8391 17.4337 3.53671 18.2162 4.16334 19.0518C4.79554 19.8928 5.34839 20.7854 5.72437 21.7115C5.95274 22.274 6.06133 22.6793 6.14767 23.0065C6.25072 23.3866 6.32035 23.647 6.5348 23.9144C7.14333 24.6678 8.15707 25.1593 9.31286 25.7177C10.1261 26.1132 11.0089 26.5393 11.889 27.1214L11.9447 27.159C15.1976 29.3104 18.6218 31.5746 20.4794 34.5114L19.9238 34.8623C18.1428 32.0467 14.7785 29.8214 11.5827 27.7076L11.5256 27.67C10.6831 27.1116 9.82116 26.6953 9.02603 26.3095C7.80062 25.7163 6.72419 25.1955 6.02376 24.3266C5.7188 23.9492 5.63526 23.6359 5.51272 23.1764C5.42917 22.8672 5.3261 22.4829 5.11444 21.9593C4.75935 21.0848 4.23576 20.2424 3.63838 19.4444C3.03542 18.6396 2.35029 17.8737 1.68467 17.1649C0.0874598 15.4633 0.222555 14.4258 0.293573 13.8828C0.300536 13.8271 0.30752 13.7783 0.308913 13.7352C0.331193 13.3132 0.694628 1.53536 0.694628 1.50194L0.707138 1.15381L1.05249 1.18583C2.61489 1.33065 3.36545 2.77469 3.71219 4.37051C4.04082 5.87582 4.00741 7.52176 3.97399 8.22915C3.96285 8.45335 3.935 8.7416 3.90437 9.06884C3.75537 10.6493 3.51585 13.1962 4.67998 14.1042C5.67702 14.8812 6.38161 15.8963 7.01103 16.8042C7.39118 17.3515 7.74213 17.8584 8.10279 18.2274C8.9926 19.1381 11.1607 19.262 11.1663 19.262L11.1315 19.9179Z" fill="#3B3A64"/>
<path d="M3.20534 10.2204C3.21091 10.212 5.35394 7.30867 5.84828 6.18352C6.07108 5.68083 6.45541 5.2394 6.87178 4.87874C7.49841 4.33705 8.21137 3.97082 8.50798 3.87195C8.90763 3.73827 11.8027 1.57292 11.8111 1.56735L12.0687 1.37239L12.2678 1.62722C12.2719 1.6314 13.6185 3.31077 11.8124 5.15028C11.3362 5.63626 10.8906 6.0192 10.4812 6.3729C9.54266 7.18334 8.79623 7.82807 8.2991 9.22755L8.29774 9.23033L8.23785 9.39186L8.23644 9.39744L8.17519 9.55896L7.56107 9.32364L7.62237 9.1635L7.67943 9.00892C8.23365 7.44513 9.03995 6.75027 10.0523 5.87577C10.4506 5.53182 10.885 5.15723 11.3446 4.68935C12.3444 3.67142 12.123 2.75097 11.9155 2.30815C11.1482 2.8749 9.11511 4.36211 8.71685 4.49439H8.71549C8.46763 4.57655 7.85908 4.89406 7.30068 5.37586C6.95116 5.67943 6.62949 6.04427 6.45125 6.44949C5.92627 7.63869 3.74145 10.6006 3.73449 10.6089L3.20534 10.2204ZM6.78823 12.557C6.59188 13.0012 6.40947 13.4622 6.26326 13.9495C6.11705 14.4369 6.00427 14.9536 5.9444 15.5133L5.28992 15.4437C5.35536 14.838 5.47648 14.2824 5.63244 13.7616C5.7884 13.2435 5.97919 12.7576 6.18667 12.2911L6.78823 12.557Z" fill="#3B3A64"/>
<path d="M8.12226 8.22219C8.1334 8.21801 12.0631 6.87424 14.7228 4.94282L14.9386 4.78547L15.1377 4.96788C15.1419 4.97206 17.0733 6.62915 13.3651 9.18719C12.9445 9.47823 12.5379 9.74142 12.1508 9.99208C11.4281 10.46 10.7736 10.8847 10.2208 11.3609L9.7905 10.8638C10.3781 10.3583 11.0493 9.92244 11.7929 9.44063C12.1745 9.19416 12.5741 8.93376 12.9919 8.6469C15.2589 7.08311 15.0821 6.06658 14.8537 5.65718C12.1258 7.54682 8.34505 8.84046 8.33391 8.84464L8.12226 8.22219ZM8.33391 14.7935C8.24757 15.2683 8.19189 15.8002 8.16822 16.4018C8.14315 17.0062 8.15149 17.6815 8.19466 18.4377L7.53882 18.4739C7.49426 17.6996 7.4859 17.0048 7.51096 16.3767C7.53603 15.7473 7.5959 15.1848 7.6878 14.6779L8.33391 14.7935Z" fill="#3B3A64"/>
<path d="M10.775 11.9402C10.7847 11.936 14.344 10.7023 15.9593 9.20809L16.2448 8.94351L16.4578 9.26798C16.4871 9.31532 16.5219 9.37798 16.5567 9.45457H16.5581C16.7113 9.79016 16.8505 10.4043 16.5776 11.1688C16.3213 11.8873 15.6919 12.7506 14.3356 13.6405C13.812 13.983 13.1785 14.3325 12.4154 14.6793L12.1424 14.0791C12.8763 13.7463 13.4806 13.4135 13.975 13.089C15.1892 12.2939 15.7421 11.5517 15.9579 10.9473C16.0958 10.5616 16.0944 10.2358 16.0456 9.99626C14.2187 11.4445 11.0048 12.5571 10.9964 12.5599L10.775 11.9402Z" fill="#3B3A64"/>
<path d="M1.8657 1.56321C1.86709 1.56739 2.22221 3.11309 1.12212 3.72022L0.806032 3.14372C1.46469 2.77888 1.22101 1.69411 1.22101 1.69133L1.8657 1.56321Z" fill="#3B3A64"/>
<path d="M12.4864 2.59785C12.4836 2.59924 11.3515 3.45841 10.4658 3.21333L10.6413 2.57974C11.2192 2.74127 12.0756 2.08679 12.0784 2.0854L12.4864 2.59785Z" fill="#3B3A64"/>
<path d="M15.4344 5.96772L15.4051 5.99138V5.98999C15.1809 6.16824 14.1491 6.98146 13.3874 6.31306L13.8204 5.81872C14.1727 6.12925 14.8537 5.59034 14.9999 5.47476L15.0013 5.47338L15.0306 5.45109L15.4344 5.96772Z" fill="#3B3A64"/>
<path d="M16.6402 10.2246C16.4801 10.3889 16.0805 10.7245 15.6293 10.8499C15.3048 10.9404 14.9553 10.9292 14.6336 10.7036L15.0124 10.1661C15.1433 10.258 15.302 10.258 15.4538 10.2163C15.7643 10.1299 16.0526 9.88624 16.1682 9.76649L16.6402 10.2246Z" fill="#3B3A64"/>
<path d="M24.0484 8.55083C24.267 7.82115 24.5873 7.15135 24.9897 6.56789C25.3963 5.97607 25.8879 5.47337 26.4407 5.08765L26.6287 4.95675L26.8167 5.08765C27.3695 5.47337 27.8597 5.97607 28.2663 6.5665C28.6687 7.15135 28.9904 7.82115 29.2076 8.55083L28.5768 8.73882C28.3791 8.07459 28.0881 7.46606 27.726 6.93969C27.4099 6.48155 27.0395 6.08329 26.6287 5.7644C26.2165 6.08329 25.8461 6.48155 25.53 6.94108C25.168 7.46605 24.8783 8.0732 24.6792 8.73882L24.0484 8.55083Z" fill="#3B3A64"/>
<path d="M26.6176 16.6176C25.6066 16.5828 24.5665 16.2528 23.6154 15.6624C22.7019 15.0984 21.8677 14.2949 21.2146 13.2881C20.5588 12.28 20.1647 11.1896 20.0199 10.1271C19.8695 9.01731 19.9893 7.93394 20.3694 6.99678L20.4544 6.78511L20.6841 6.79208C21.6965 6.82689 22.7353 7.15691 23.6878 7.74595C24.5999 8.31131 25.434 9.1134 26.0884 10.1216C26.2681 10.3973 26.4282 10.68 26.5689 10.9682C26.7109 11.2593 26.8348 11.5545 26.9379 11.8539L26.3182 12.0683C26.2249 11.7968 26.1107 11.5252 25.9785 11.2565C25.8503 10.9947 25.7041 10.7343 25.5384 10.4795C24.9368 9.55483 24.1737 8.81958 23.3424 8.30435C22.5612 7.82115 21.7202 7.53151 20.8972 7.46188C20.6257 8.24308 20.5476 9.13011 20.6716 10.0408C20.8025 11.01 21.1645 12.0057 21.7647 12.9303C22.3649 13.8549 23.128 14.5901 23.9593 15.104C24.8143 15.6331 25.7417 15.9297 26.6385 15.9604L26.6176 16.6176Z" fill="#3B3A64"/>
<path d="M24.0484 8.55083C24.267 7.82115 24.5873 7.15135 24.9897 6.56789C25.3963 5.97607 25.8879 5.47337 26.4407 5.08765L26.6287 4.95675L26.8167 5.08765C27.3695 5.47337 27.8597 5.97607 28.2663 6.5665C28.6687 7.15135 28.9904 7.82115 29.2076 8.55083L28.5768 8.73882C28.3791 8.07459 28.0881 7.46606 27.726 6.93969C27.4099 6.48155 27.0395 6.08329 26.6287 5.7644C26.2165 6.08329 25.8461 6.48155 25.53 6.94108C25.168 7.46605 24.8783 8.0732 24.6792 8.73882L24.0484 8.55083Z" fill="#3B3A64"/>
<path d="M32.3603 7.46193C31.536 7.53155 30.6949 7.8212 29.9151 8.3044C29.0823 8.81963 28.3192 9.55488 27.7191 10.4795C27.1189 11.4041 26.7582 12.3998 26.6259 13.369C26.502 14.2797 26.58 15.1653 26.8515 15.9465C27.6745 15.8783 28.5156 15.5886 29.2968 15.1054C30.1281 14.5902 30.8912 13.855 31.4928 12.9303C32.093 12.0057 32.4536 11.01 32.5859 10.0395C32.7098 9.13015 32.6319 8.24452 32.3603 7.46193ZM29.5697 7.74599C30.5222 7.15696 31.561 6.82693 32.572 6.79212L32.8017 6.78516L32.8881 6.99682C33.2668 7.93398 33.388 9.01736 33.2376 10.1272C33.0928 11.1897 32.6973 12.28 32.0428 13.2882C31.3883 14.2964 30.5542 15.0999 29.6422 15.6638C28.6897 16.2529 27.6508 16.5829 26.6385 16.6177L26.4087 16.6247L26.3238 16.413C25.9436 15.4758 25.8239 14.3911 25.9742 13.2826C26.1191 12.2187 26.5132 11.1298 27.169 10.1216C27.8235 9.11345 28.6576 8.31135 29.5697 7.74599Z" fill="#3B3A64"/>
<path d="M22.9093 34.3276C22.9191 34.3234 25.9687 32.924 26.5716 29.504C26.8919 27.6895 27.2316 25.7957 27.9725 24.2194C28.7328 22.5999 29.9025 21.3369 31.8673 20.8676C32.2461 20.7785 32.6109 20.6977 32.9577 20.6225C35.8276 19.9945 37.3747 19.6561 40.7306 14.1543C41.9825 12.099 42.9197 10.9209 43.7009 10.1856C44.5002 9.4309 45.131 9.13986 45.7632 8.85301L46.0347 9.45319C45.4513 9.71637 44.872 9.98373 44.1507 10.6647C43.4099 11.3637 42.5103 12.4972 41.2918 14.4955C37.7897 20.2382 36.1465 20.5988 33.0969 21.2659C32.7599 21.3397 32.4062 21.4162 32.0191 21.5095C30.2841 21.9217 29.2466 23.0497 28.5671 24.4979C27.8666 25.9893 27.5324 27.8413 27.2205 29.6168C26.5577 33.3765 23.1976 34.918 23.1878 34.9222L22.9093 34.3276ZM47.8436 10.9752L47.7615 11.1507C47.4147 11.8817 46.8299 13.1197 46.2506 13.9566C45.9944 14.3284 45.6796 14.7211 45.3301 15.1569C43.7761 17.0981 41.5216 19.9151 41.1414 25.0382L40.4856 24.9922C40.8797 19.6645 43.2121 16.7513 44.8191 14.7447C45.1602 14.3186 45.468 13.9343 45.7103 13.5834C46.2575 12.7924 46.8285 11.5837 47.1669 10.8708L47.249 10.6953L47.8436 10.9752Z" stroke="#3B3A64" stroke-width="0.287391"/>
<path d="M47.7727 7.87124C48.1347 8.09822 48.274 8.61764 48.2559 9.21642C48.2364 9.81938 48.0637 10.5295 47.8075 11.0531C47.7462 11.1785 47.6794 11.2996 47.6056 11.4138L47.6069 11.4152C47.366 11.7926 47.0736 12.085 46.7617 12.2507C46.408 12.4387 46.0334 12.4707 45.6797 12.298C45.6393 12.2785 45.5989 12.2563 45.5614 12.2312V12.2298C45.1687 11.9805 44.9333 11.5447 44.8832 11.0322C44.8373 10.5685 44.9445 10.0366 45.2257 9.52973C45.2661 9.46011 45.3023 9.39604 45.3371 9.34034H45.3386C45.6212 8.89056 46.0139 8.44218 46.4066 8.14418C46.8689 7.79327 47.3535 7.63591 47.7379 7.85036L47.7448 7.85454L47.7643 7.86568L47.7727 7.87124ZM47.5986 9.19832C47.6111 8.82652 47.5624 8.52574 47.4301 8.43244L47.4106 8.42129V8.4199C47.2881 8.36141 47.0583 8.47282 46.8035 8.66638C46.472 8.91703 46.1379 9.29997 45.8956 9.68708V9.68847C45.858 9.74835 45.8259 9.80266 45.8009 9.84861C45.585 10.2343 45.5029 10.6298 45.5363 10.9682C45.5669 11.2815 45.6978 11.5391 45.9137 11.677V11.6756C45.9318 11.6881 45.9499 11.6979 45.968 11.7062C46.117 11.78 46.2855 11.7605 46.4526 11.6714C46.6628 11.56 46.8703 11.347 47.0499 11.0615H47.0513C47.1084 10.9724 47.1641 10.8735 47.2157 10.7663V10.7649C47.4343 10.3165 47.5833 9.71076 47.5986 9.19832Z" stroke="#3B3A64" stroke-width="0.287391"/>
<path d="M42.0898 19.262C42.0954 19.262 44.2649 19.1381 45.1547 18.2274C45.514 17.8584 45.8663 17.3515 46.2464 16.8042C46.8759 15.8963 47.5805 14.8812 48.5761 14.1042C49.7403 13.1962 49.5007 10.6493 49.3517 9.06884C49.3211 8.74299 49.2933 8.45613 49.2821 8.22915C49.2487 7.52176 49.2167 5.87582 49.5439 4.37051C49.8907 2.77469 50.6412 1.33065 52.2036 1.18583L52.5503 1.15381L52.5615 1.50194C52.5629 1.53536 52.9249 13.3132 52.9472 13.7352C52.9486 13.7783 52.9556 13.8271 52.9625 13.8814C53.0336 14.4258 53.17 15.4633 51.5714 17.1649C50.9058 17.8737 50.2221 18.6396 49.6177 19.4444C49.0204 20.2424 48.4967 21.0848 48.143 21.9593C47.93 22.4829 47.827 22.8672 47.7448 23.175C47.6209 23.6359 47.5373 23.9492 47.2337 24.3266C46.5319 25.1955 45.4555 25.7163 44.2301 26.3095C43.435 26.6953 42.5744 27.1116 41.7305 27.67L41.6748 27.7076C38.479 29.8214 35.1133 32.0467 33.3337 34.8623L32.7767 34.5114C34.6343 31.5746 38.0585 29.3104 41.3114 27.159L41.3685 27.1214C42.2485 26.5393 43.13 26.1132 43.9446 25.7177C45.099 25.1593 46.1128 24.6678 46.7213 23.9144C46.9372 23.647 47.0067 23.3867 47.1084 23.0051C47.1961 22.6793 47.3047 22.274 47.5331 21.7115C47.9077 20.7854 48.4619 19.8928 49.0927 19.0518C49.7193 18.2162 50.417 17.4337 51.0924 16.7151C52.4779 15.2391 52.3693 14.4049 52.3122 13.9663V13.9649C52.3025 13.8911 52.2928 13.8257 52.2914 13.77C52.2705 13.3828 51.9794 3.94022 51.9167 1.90715C50.9573 2.19958 50.4504 3.30106 50.1872 4.50976C49.8753 5.94266 49.906 7.52037 49.9394 8.19713C49.9505 8.41854 49.9756 8.69425 50.0048 9.00617C50.1677 10.7245 50.4281 13.4928 48.9813 14.6208C48.0636 15.3365 47.3897 16.3085 46.7867 17.1774C46.3899 17.7484 46.0222 18.2789 45.6254 18.6855C44.5559 19.78 42.1316 19.9179 42.126 19.9179L42.0898 19.262Z" stroke="#3B3A64" stroke-width="0.287391"/>
<path d="M49.5216 10.6089C49.516 10.6006 47.3297 7.63869 46.8062 6.44949C46.6279 6.04566 46.3063 5.67943 45.9554 5.37586C45.3984 4.89406 44.7884 4.57655 44.542 4.49439H44.5406C44.1423 4.36211 42.1079 2.8749 41.342 2.30815C41.1345 2.75097 40.9131 3.67142 41.9115 4.68935C42.3724 5.15723 42.8055 5.53182 43.2052 5.87577C44.2175 6.74887 45.0238 7.44513 45.578 9.00753L45.6351 9.16767L45.6365 9.16627C45.6546 9.2164 45.674 9.26932 45.6949 9.32223L45.0822 9.56175C45.0613 9.50744 45.0391 9.45175 45.0182 9.39326V9.39186L44.9583 9.22893L44.9569 9.22616C44.4612 7.82808 43.7134 7.18334 42.7748 6.3729C42.3654 6.0192 41.9213 5.63626 41.4436 5.15028C39.6389 3.31077 40.9855 1.6314 40.9882 1.62722L41.1874 1.37239L41.445 1.56735C41.4534 1.57292 44.3484 3.73827 44.748 3.87195C45.0446 3.97082 45.759 4.33704 46.3856 4.88012C46.8006 5.23939 47.1863 5.68083 47.4077 6.18352C47.9035 7.30867 50.0466 10.212 50.0521 10.2204L49.5216 10.6089ZM47.0707 12.2911C47.2768 12.7576 47.4676 13.2435 47.6236 13.7616C47.7795 14.2824 47.9007 14.838 47.9661 15.4437L47.3131 15.5133C47.2518 14.9536 47.139 14.4369 46.9928 13.9495C46.8466 13.4622 46.6655 13.0012 46.4678 12.557L47.0707 12.2911Z" stroke="#3B3A64" stroke-width="0.287391"/>
<path d="M44.9236 8.84464C44.9124 8.84046 41.1304 7.54821 38.4038 5.65718C38.1741 6.06658 37.9986 7.08311 40.2642 8.6469C40.6819 8.93376 41.0816 9.19416 41.4632 9.44063C42.2068 9.92244 42.8794 10.3583 43.4656 10.8652L43.0353 11.3609C42.4825 10.8833 41.828 10.46 41.1053 9.99068C40.7182 9.74142 40.313 9.47684 39.891 9.18719C36.1842 6.62915 38.1142 4.97206 38.1197 4.96788L38.3175 4.78547L38.5333 4.94282C41.1944 6.87424 45.1241 8.21801 45.1352 8.2208L44.9236 8.84464ZM45.5697 14.6779C45.6602 15.1834 45.7201 15.7459 45.7451 16.3767C45.7702 17.0048 45.7619 17.6996 45.7187 18.4739L45.0614 18.4377C45.1046 17.6815 45.1129 17.0062 45.0892 16.4018C45.0642 15.8002 45.0085 15.2669 44.9236 14.7935L45.5697 14.6779Z" stroke="#3B3A64" stroke-width="0.287391"/>
<path d="M42.2611 12.5599C42.2513 12.5571 39.0374 11.4431 37.2118 9.99486C37.1631 10.2344 37.1603 10.5602 37.2981 10.946C37.514 11.5517 38.0654 12.2925 39.2769 13.0876C39.7726 13.4121 40.3783 13.7449 41.1136 14.0805L40.8407 14.6793C40.0762 14.3311 39.4412 13.9816 38.9176 13.6377C37.5627 12.7493 36.9347 11.8859 36.6784 11.1674C36.4069 10.4057 36.5462 9.79156 36.6993 9.45597H36.698C36.73 9.38495 36.7662 9.32089 36.801 9.26798L37.0141 8.94491L37.2981 9.20809C38.912 10.7023 42.4727 11.936 42.4824 11.9402L42.2611 12.5599Z" stroke="#3B3A64" stroke-width="0.287391"/>
<path d="M52.0365 1.69133C52.0365 1.69411 51.7914 2.78028 52.4515 3.14512L52.1325 3.72022C51.0352 3.11169 51.3889 1.56739 51.3903 1.56321L52.0365 1.69133Z" stroke="#3B3A64" stroke-width="0.287391"/>
<path d="M41.1791 2.0854C41.1805 2.08679 42.0369 2.73988 42.6162 2.57974L42.7902 3.21333C41.906 3.45841 40.7725 2.59924 40.7697 2.59785L41.1791 2.0854Z" stroke="#3B3A64" stroke-width="0.287391"/>
<path d="M38.227 5.45108L38.2562 5.47337L38.2576 5.47476C38.4052 5.59173 39.0847 6.12785 39.437 5.81871L39.8687 6.31305C39.1084 6.98146 38.0779 6.16962 37.8524 5.99137L37.8217 5.96771L38.227 5.45108Z" stroke="#3B3A64" stroke-width="0.287391"/>
<path d="M37.0879 9.76649C37.2049 9.88624 37.4931 10.1299 37.8023 10.2163C37.9555 10.258 38.1128 10.258 38.2437 10.1661L38.6224 10.7036C38.3022 10.9292 37.9527 10.9404 37.6282 10.8499C37.177 10.7245 36.776 10.3889 36.6172 10.2246L37.0879 9.76649Z" stroke="#3B3A64" stroke-width="0.287391"/>
<path d="M26.3181 30.6987C26.2569 30.5232 26.2026 30.345 26.1567 30.1654C26.1093 29.9816 26.0689 29.7991 26.0369 29.6167C25.7236 27.8413 25.3908 25.9892 24.6903 24.4978C24.0108 23.0496 22.972 21.9217 21.2369 21.5095C20.8512 21.4162 20.4961 21.3396 20.1605 21.2658C17.1109 20.5988 15.4677 20.2381 11.9655 14.4954C10.7471 12.4972 9.84756 11.3637 9.10535 10.6646C8.38403 9.9837 7.80475 9.71634 7.22268 9.45315L7.49281 8.85297C8.1264 9.13983 8.7558 9.43087 9.5565 10.1856C10.3363 10.9209 11.2735 12.0989 12.5267 14.1543C15.8827 19.6561 17.4284 19.9945 20.2997 20.6225C20.6465 20.6977 21.0113 20.7785 21.3887 20.8676C23.3535 21.3368 24.5232 22.5999 25.2849 24.2193C26.0243 25.7957 26.3655 27.6895 26.6844 29.5039C26.7164 29.6794 26.7512 29.8451 26.7916 29.9997C26.8362 30.1709 26.8849 30.3325 26.9378 30.4856L26.3181 30.6987ZM6.00701 10.6953L6.09056 10.8707C6.42755 11.5837 6.99984 12.791 7.54709 13.5833C7.79496 13.9426 8.09992 14.3228 8.4383 14.7447C10.0453 16.7513 12.3764 19.6644 12.7718 24.9922L12.1145 25.0381C11.7358 19.9151 9.47994 17.098 7.9259 15.1569V15.1555C7.57499 14.7155 7.25608 14.3186 7.00543 13.9565C6.42754 13.1196 5.84131 11.8817 5.49597 11.1506L5.41242 10.9752L6.00701 10.6953Z" stroke="#3B3A64" stroke-width="0.287391"/>
<path d="M5.8274 8.43244C5.69372 8.52574 5.64639 8.82652 5.65753 9.19832C5.67424 9.71076 5.82184 10.3165 6.04047 10.7649C6.09478 10.8763 6.1491 10.9752 6.2048 11.0615H6.20621C6.38724 11.347 6.5947 11.56 6.80358 11.6714C6.97068 11.7605 7.13918 11.7786 7.28818 11.7062H7.29096C7.3021 11.7007 7.32019 11.6909 7.34247 11.6756L7.34388 11.677C7.55833 11.5391 7.68922 11.2815 7.71986 10.9682C7.75328 10.6298 7.67109 10.2343 7.45664 9.84861C7.43018 9.80266 7.39818 9.74835 7.36058 9.68847L7.362 9.68708C7.11831 9.29997 6.78406 8.91703 6.45403 8.66638C6.19781 8.47282 5.96806 8.36141 5.84552 8.4199V8.42129L5.8274 8.43244ZM5.00169 9.21642C4.98359 8.61764 5.12283 8.09822 5.48488 7.87124L5.49184 7.86568L5.51131 7.85454L5.51969 7.85036C5.90402 7.63591 6.38862 7.79327 6.84954 8.14418C7.24223 8.44218 7.6363 8.89056 7.91758 9.34034H7.919C7.95381 9.39604 7.99141 9.46011 8.0304 9.52973C8.31308 10.0366 8.42029 10.5685 8.37434 11.0322C8.32421 11.5447 8.08889 11.9805 7.6962 12.2298V12.2312C7.66278 12.2521 7.62377 12.2744 7.57642 12.2967L7.57783 12.298C7.22274 12.4707 6.84815 12.4387 6.49445 12.2507C6.18253 12.0836 5.89011 11.7926 5.64921 11.4152L5.65057 11.4138C5.57537 11.2954 5.50714 11.1757 5.44865 11.0531C5.19382 10.5295 5.01979 9.81938 5.00169 9.21642Z" stroke="#3B3A64" stroke-width="0.287391"/>
<path d="M11.1315 19.9179C11.1245 19.9179 8.70014 19.78 7.63069 18.6855C7.23383 18.2789 6.86764 17.7498 6.47078 17.1774C5.86782 16.3085 5.19243 15.3365 4.27616 14.6208C2.82934 13.4928 3.08971 10.7273 3.25125 9.01036C3.28049 8.69705 3.3056 8.42132 3.31674 8.19713C3.35016 7.52037 3.38217 5.94266 3.06886 4.50976C2.80568 3.30106 2.29881 2.19958 1.33937 1.90715C1.27671 3.94022 0.985662 13.3828 0.966167 13.77C0.963382 13.8257 0.953613 13.8911 0.943865 13.9663V13.9677C0.888165 14.405 0.779571 15.2391 2.16373 16.7151C2.8391 17.4337 3.53671 18.2162 4.16334 19.0518C4.79554 19.8928 5.34839 20.7854 5.72437 21.7115C5.95274 22.274 6.06133 22.6793 6.14767 23.0065C6.25072 23.3866 6.32035 23.647 6.5348 23.9144C7.14333 24.6678 8.15707 25.1593 9.31286 25.7177C10.1261 26.1132 11.0089 26.5393 11.889 27.1214L11.9447 27.159C15.1976 29.3104 18.6218 31.5746 20.4794 34.5114L19.9238 34.8623C18.1428 32.0467 14.7785 29.8214 11.5827 27.7076L11.5256 27.67C10.6831 27.1116 9.82116 26.6953 9.02603 26.3095C7.80062 25.7163 6.72419 25.1955 6.02376 24.3266C5.7188 23.9492 5.63526 23.6359 5.51272 23.1764C5.42917 22.8672 5.3261 22.4829 5.11444 21.9593C4.75935 21.0848 4.23576 20.2424 3.63838 19.4444C3.03542 18.6396 2.35029 17.8737 1.68467 17.1649C0.0874598 15.4633 0.222555 14.4258 0.293573 13.8828C0.300536 13.8271 0.30752 13.7783 0.308913 13.7352C0.331193 13.3132 0.694628 1.53536 0.694628 1.50194L0.707138 1.15381L1.05249 1.18583C2.61489 1.33065 3.36545 2.77469 3.71219 4.37051C4.04082 5.87582 4.00741 7.52176 3.97399 8.22915C3.96285 8.45335 3.935 8.7416 3.90437 9.06884C3.75537 10.6493 3.51585 13.1962 4.67998 14.1042C5.67702 14.8812 6.38161 15.8963 7.01103 16.8042C7.39118 17.3515 7.74213 17.8584 8.10279 18.2274C8.9926 19.1381 11.1607 19.262 11.1663 19.262L11.1315 19.9179Z" stroke="#3B3A64" stroke-width="0.287391"/>
<path d="M3.20534 10.2204C3.21091 10.212 5.35394 7.30867 5.84828 6.18352C6.07108 5.68083 6.45541 5.2394 6.87178 4.87874C7.49841 4.33705 8.21137 3.97082 8.50798 3.87195C8.90763 3.73827 11.8027 1.57292 11.8111 1.56735L12.0687 1.37239L12.2678 1.62722C12.2719 1.6314 13.6185 3.31077 11.8124 5.15028C11.3362 5.63626 10.8906 6.0192 10.4812 6.3729C9.54266 7.18334 8.79623 7.82807 8.2991 9.22755L8.29774 9.23033L8.23785 9.39186L8.23644 9.39744L8.17519 9.55896L7.56107 9.32364L7.62237 9.1635L7.67943 9.00892C8.23365 7.44513 9.03995 6.75027 10.0523 5.87577C10.4506 5.53182 10.885 5.15723 11.3446 4.68935C12.3444 3.67142 12.123 2.75097 11.9155 2.30815C11.1482 2.8749 9.11511 4.36211 8.71685 4.49439H8.71549C8.46763 4.57655 7.85908 4.89406 7.30068 5.37586C6.95116 5.67943 6.62949 6.04427 6.45125 6.44949C5.92627 7.63869 3.74145 10.6006 3.73449 10.6089L3.20534 10.2204ZM6.78823 12.557C6.59188 13.0012 6.40947 13.4622 6.26326 13.9495C6.11705 14.4369 6.00427 14.9536 5.9444 15.5133L5.28992 15.4437C5.35536 14.838 5.47648 14.2824 5.63244 13.7616C5.7884 13.2435 5.97919 12.7576 6.18667 12.2911L6.78823 12.557Z" stroke="#3B3A64" stroke-width="0.287391"/>
<path d="M8.12226 8.22219C8.1334 8.21801 12.0631 6.87424 14.7228 4.94282L14.9386 4.78547L15.1377 4.96788C15.1419 4.97206 17.0733 6.62915 13.3651 9.18719C12.9445 9.47823 12.5379 9.74142 12.1508 9.99208C11.4281 10.46 10.7736 10.8847 10.2208 11.3609L9.7905 10.8638C10.3781 10.3583 11.0493 9.92244 11.7929 9.44063C12.1745 9.19416 12.5741 8.93376 12.9919 8.6469C15.2589 7.08311 15.0821 6.06658 14.8537 5.65718C12.1258 7.54682 8.34505 8.84046 8.33391 8.84464L8.12226 8.22219ZM8.33391 14.7935C8.24757 15.2683 8.19189 15.8002 8.16822 16.4018C8.14315 17.0062 8.15149 17.6815 8.19466 18.4377L7.53882 18.4739C7.49426 17.6996 7.4859 17.0048 7.51096 16.3767C7.53603 15.7473 7.5959 15.1848 7.6878 14.6779L8.33391 14.7935Z" stroke="#3B3A64" stroke-width="0.287391"/>
<path d="M10.775 11.9402C10.7847 11.936 14.344 10.7023 15.9593 9.20809L16.2448 8.94351L16.4578 9.26798C16.4871 9.31532 16.5219 9.37798 16.5567 9.45457H16.5581C16.7113 9.79016 16.8505 10.4043 16.5776 11.1688C16.3213 11.8873 15.6919 12.7506 14.3356 13.6405C13.812 13.983 13.1785 14.3325 12.4154 14.6793L12.1424 14.0791C12.8763 13.7463 13.4806 13.4135 13.975 13.089C15.1892 12.2939 15.7421 11.5517 15.9579 10.9473C16.0958 10.5616 16.0944 10.2358 16.0456 9.99626C14.2187 11.4445 11.0048 12.5571 10.9964 12.5599L10.775 11.9402Z" stroke="#3B3A64" stroke-width="0.287391"/>
<path d="M1.8657 1.56321C1.86709 1.56739 2.22221 3.11309 1.12212 3.72022L0.806032 3.14372C1.46469 2.77888 1.22101 1.69411 1.22101 1.69133L1.8657 1.56321Z" stroke="#3B3A64" stroke-width="0.287391"/>
<path d="M12.4864 2.59785C12.4836 2.59924 11.3515 3.45841 10.4658 3.21333L10.6413 2.57974C11.2192 2.74127 12.0756 2.08679 12.0784 2.0854L12.4864 2.59785Z" stroke="#3B3A64" stroke-width="0.287391"/>
<path d="M15.4344 5.96772L15.4051 5.99138V5.98999C15.1809 6.16824 14.1491 6.98146 13.3874 6.31306L13.8204 5.81872C14.1727 6.12925 14.8537 5.59034 14.9999 5.47476L15.0013 5.47338L15.0306 5.45109L15.4344 5.96772Z" stroke="#3B3A64" stroke-width="0.287391"/>
<path d="M16.6402 10.2246C16.4801 10.3889 16.0805 10.7245 15.6293 10.8499C15.3048 10.9404 14.9553 10.9292 14.6336 10.7036L15.0124 10.1661C15.1433 10.258 15.302 10.258 15.4538 10.2163C15.7643 10.1299 16.0526 9.88624 16.1682 9.76649L16.6402 10.2246Z" stroke="#3B3A64" stroke-width="0.287391"/>
<path d="M24.0484 8.55083C24.267 7.82115 24.5873 7.15135 24.9897 6.56789C25.3963 5.97607 25.8879 5.47337 26.4407 5.08765L26.6287 4.95675L26.8167 5.08765C27.3695 5.47337 27.8597 5.97607 28.2663 6.5665C28.6687 7.15135 28.9904 7.82115 29.2076 8.55083L28.5768 8.73882C28.3791 8.07459 28.0881 7.46606 27.726 6.93969C27.4099 6.48155 27.0395 6.08329 26.6287 5.7644C26.2165 6.08329 25.8461 6.48155 25.53 6.94108C25.168 7.46605 24.8783 8.0732 24.6792 8.73882L24.0484 8.55083Z" stroke="#3B3A64" stroke-width="0.287391"/>
<path d="M26.6176 16.6176C25.6066 16.5828 24.5665 16.2528 23.6154 15.6624C22.7019 15.0984 21.8677 14.2949 21.2146 13.2881C20.5588 12.28 20.1647 11.1896 20.0199 10.1271C19.8695 9.01731 19.9893 7.93394 20.3694 6.99678L20.4544 6.78511L20.6841 6.79208C21.6965 6.82689 22.7353 7.15691 23.6878 7.74595C24.5999 8.31131 25.434 9.1134 26.0884 10.1216C26.2681 10.3973 26.4282 10.68 26.5689 10.9682C26.7109 11.2593 26.8348 11.5545 26.9379 11.8539L26.3182 12.0683C26.2249 11.7968 26.1107 11.5252 25.9785 11.2565C25.8503 10.9947 25.7041 10.7343 25.5384 10.4795C24.9368 9.55483 24.1737 8.81958 23.3424 8.30435C22.5612 7.82115 21.7202 7.53151 20.8972 7.46188C20.6257 8.24308 20.5476 9.13011 20.6716 10.0408C20.8025 11.01 21.1645 12.0057 21.7647 12.9303C22.3649 13.8549 23.128 14.5901 23.9593 15.104C24.8143 15.6331 25.7417 15.9297 26.6385 15.9604L26.6176 16.6176Z" stroke="#3B3A64" stroke-width="0.287391"/>
<path d="M24.0484 8.55083C24.267 7.82115 24.5873 7.15135 24.9897 6.56789C25.3963 5.97607 25.8879 5.47337 26.4407 5.08765L26.6287 4.95675L26.8167 5.08765C27.3695 5.47337 27.8597 5.97607 28.2663 6.5665C28.6687 7.15135 28.9904 7.82115 29.2076 8.55083L28.5768 8.73882C28.3791 8.07459 28.0881 7.46606 27.726 6.93969C27.4099 6.48155 27.0395 6.08329 26.6287 5.7644C26.2165 6.08329 25.8461 6.48155 25.53 6.94108C25.168 7.46605 24.8783 8.0732 24.6792 8.73882L24.0484 8.55083Z" stroke="#3B3A64" stroke-width="0.287391"/>
<path d="M32.3603 7.46193C31.536 7.53155 30.6949 7.8212 29.9151 8.3044C29.0823 8.81963 28.3192 9.55488 27.7191 10.4795C27.1189 11.4041 26.7582 12.3998 26.6259 13.369C26.502 14.2797 26.58 15.1653 26.8515 15.9465C27.6745 15.8783 28.5156 15.5886 29.2968 15.1054C30.1281 14.5902 30.8912 13.855 31.4928 12.9303C32.093 12.0057 32.4536 11.01 32.5859 10.0395C32.7098 9.13015 32.6319 8.24452 32.3603 7.46193ZM29.5697 7.74599C30.5222 7.15696 31.561 6.82693 32.572 6.79212L32.8017 6.78516L32.8881 6.99682C33.2668 7.93398 33.388 9.01736 33.2376 10.1272C33.0928 11.1897 32.6973 12.28 32.0428 13.2882C31.3883 14.2964 30.5542 15.0999 29.6422 15.6638C28.6897 16.2529 27.6508 16.5829 26.6385 16.6177L26.4087 16.6247L26.3238 16.413C25.9436 15.4758 25.8239 14.3911 25.9742 13.2826C26.1191 12.2187 26.5132 11.1298 27.169 10.1216C27.8235 9.11345 28.6576 8.31135 29.5697 7.74599Z" stroke="#3B3A64" stroke-width="0.287391"/>
</svg>